<svg id="Laag_1" data-name="Laag 1" xmlns="http://www.w3.org/2000/svg" xmlns:xlink="http://www.w3.org/1999/xlink" viewBox="0 0 78 44"><defs><style>.cls-1{fill:#fff;}.cls-2{fill:#494949;}.cls-3{fill:none;stroke:#dadce0;}.cls-4{mask:url(#mask);}.cls-5{fill:#9cd7ff;opacity:0.69;isolation:isolate;}.cls-5,.cls-7{fill-rule:evenodd;}.cls-6{mask:url(#mask-2);}.cls-7{fill:#8fea8f;}</style><mask id="mask" x="0" y="0" width="78" height="49" maskUnits="userSpaceOnUse"><g id="b"><rect id="a" class="cls-1" width="78" height="44" rx="2"/></g></mask><mask id="mask-2" x="0" y="0" width="78" height="44" maskUnits="userSpaceOnUse"><g id="b-2" data-name="b"><rect id="a-2" data-name="a" class="cls-1" width="78" height="44" rx="2"/></g></mask></defs><rect class="cls-2" x="1" y="0.5" width="75.92" height="42.41"/><rect class="cls-3" x="0.5" y="0.5" width="77" height="43" rx="2"/><g class="cls-4"><path class="cls-5" d="M0,17V49H71.53s1.64.92-1.22-8.42-13.7-11.62-13.7-11.62l-3-3.28H49.78s-1.71,1.83-4,3.93-14.62-.65-14.62-.65a23.53,23.53,0,0,0-3.38-2.73,5.64,5.64,0,0,0-2.69.17l-4.3-7.49H17.16S16.69,20.4,13,21.15a19,19,0,0,1-7.08,0Z"/></g><g class="cls-6"><path id="c" class="cls-7" d="M24,14,19,9l-5,5Z"/></g><g class="cls-6"><path id="d" class="cls-7" d="M56,21l-5-5-5,5Z"/></g></svg>