<svg id="Laag_1" data-name="Laag 1" xmlns="http://www.w3.org/2000/svg" xmlns:xlink="http://www.w3.org/1999/xlink" viewBox="0 0 78 44"><defs><style>.cls-1{fill:#fff;}.cls-2{fill:#494949;}.cls-3{fill:none;stroke:#dadce0;}.cls-4{mask:url(#mask);}.cls-5{fill:#9cd7ff;opacity:0.69;isolation:isolate;}.cls-5,.cls-6{fill-rule:evenodd;}.cls-6{fill:#ff7b7b;}</style><mask id="mask" x="0" y="0" width="78" height="44" maskUnits="userSpaceOnUse"><g id="b"><rect id="a" class="cls-1" width="78" height="44" rx="2"/></g></mask></defs><rect class="cls-2" x="0.81" y="1" width="76.38" height="42"/><rect class="cls-3" x="0.5" y="0.5" width="77" height="43" rx="2"/><g class="cls-4"><path class="cls-5" d="M0,12,.4,44H72V38.11s-3-3.3-5.66-3.3-20.5-1.63-20.5-1.63l-2-2.33-3.62,0L36.5,36.43,29,29l-8.85-.43s-6.74-.6-7.84-.6S8.75,25,8.75,25s-4-2.26-4-2.61-1-6.14-1-6.14"/></g><g class="cls-4"><path id="c" class="cls-6" d="M17,10l-5,5L7,10Z"/></g><g class="cls-4"><path id="d" class="cls-6" d="M41,23l-5,5-5-5Z"/></g></svg>